# xmcd
#
# Track frame offsets:
# 150
# 17616
# 41457
# 60160
# 76659
# 96577
# 116043
# 136498
# 152883
#
# Disc length: 2192 seconds
#
#
# Revision: 0
# Processed by: cddbd v1.5.2PL0 Copyright (c) Steve Scherf et al.
# Submitted via: FreeRIP 2.941 
#
DISCID=69088e09
DTITLE=JOY - Only One
DYEAR=2006
DGENRE=Funk
TTITLE0=Only one
TTITLE1=천국에도
TTITLE2=If ever
TTITLE3=Only one (Acoustic)
TTITLE4=높은이름
TTITLE5=눈물로 (Live Worship)
TTITLE6=끝없이
TTITLE7=MR
TTITLE8=MR
EXTD=joy
EXTT0=
EXTT1=
EXTT2=
EXTT3=
EXTT4=
EXTT5=
EXTT6=
EXTT7=
EXTT8=
PLAYORDER=
